<?xml version="1.0" encoding="UTF-8"?>
<svg width="240" height="240" viewBox="0 0 240 240" fill="none" xmlns="http://www.w3.org/2000/svg">
    <!-- Clock background -->
    <circle cx="120" cy="120" r="100" fill="#2A2A2A" stroke="#6366F1" stroke-width="8" />

    <!-- Clock face -->
    <circle cx="120" cy="120" r="85" fill="#1E1E1E" stroke="#4F46E5" stroke-width="2" />

    <!-- Clock hands -->
    <line x1="120" y1="120" x2="120" y2="65" stroke="#EF4444" stroke-width="6"
        stroke-linecap="round" />
    <line x1="120" y1="120" x2="160" y2="140" stroke="#6366F1" stroke-width="6"
        stroke-linecap="round" />

    <!-- Clock center -->
    <circle cx="120" cy="120" r="8" fill="#6366F1" />

    <!-- Hour markers -->
    <line x1="120" y1="45" x2="120" y2="55" stroke="#A1A1AA" stroke-width="4" stroke-linecap="round" />
    <line x1="195" y1="120" x2="185" y2="120" stroke="#A1A1AA" stroke-width="4"
        stroke-linecap="round" />
    <line x1="120" y1="195" x2="120" y2="185" stroke="#A1A1AA" stroke-width="4"
        stroke-linecap="round" />
    <line x1="45" y1="120" x2="55" y2="120" stroke="#A1A1AA" stroke-width="4" stroke-linecap="round" />

    <!-- Diagonal hour markers -->
    <line x1="170" y1="70" x2="163" y2="77" stroke="#A1A1AA" stroke-width="4" stroke-linecap="round" />
    <line x1="170" y1="170" x2="163" y2="163" stroke="#A1A1AA" stroke-width="4"
        stroke-linecap="round" />
    <line x1="70" y1="170" x2="77" y2="163" stroke="#A1A1AA" stroke-width="4" stroke-linecap="round" />
    <line x1="70" y1="70" x2="77" y2="77" stroke="#A1A1AA" stroke-width="4" stroke-linecap="round" />

    <!-- Small hourglass icon -->
    <g transform="translate(175, 175) scale(0.5)">
        <path d="M20 0 L40 0 L40 10 L30 25 L40 40 L40 50 L20 50 L20 40 L30 25 L20 10 Z"
            fill="#6366F1" />
        <path d="M25 15 L35 15 L30 25 L25 15 Z" fill="#1E1E1E" />
        <path d="M25 35 L35 35 L30 25 L25 35 Z" fill="#EF4444" />
    </g>
</svg> 